<svg width="50" height="50" viewBox="0 0 50 50" fill="none" xmlns="http://www.w3.org/2000/svg">
<g clip-path="url(#clip0_507_550)">
<path fill-rule="evenodd" clip-rule="evenodd" d="M26.4613 27.0417C25.6873 28.5854 24.3623 29.5792 22.9269 29.9146C22.7103 29.9146 22.378 30.024 22.0457 30.024C19.6196 30.024 18.1853 28.1469 18.1853 25.3885C18.1853 21.8531 20.2811 20.2 22.9269 19.424C24.3623 19.0937 26.0207 18.9823 27.6748 18.9823V20.3083C27.6748 22.8469 27.7842 24.8323 26.4613 27.0417ZM27.6748 13.9083C26.2405 14.0177 24.5821 14.1271 22.9269 14.3438C20.3905 14.6792 17.854 15.1208 15.7603 16.1146C11.6769 17.7708 8.9165 21.3021 8.9165 26.4885C8.9165 33.0062 13.1082 36.3146 18.4092 36.3146C20.1728 36.3146 21.6071 36.0917 22.9269 35.7646C25.029 35.1 26.7905 33.8854 28.8863 31.676C30.1009 33.3323 30.4353 34.1083 32.529 35.874C33.0811 36.0917 33.6332 36.0917 34.0717 35.7646C35.3978 34.6583 37.7175 32.6708 38.929 31.5667C39.4811 31.126 39.3728 30.4625 39.0373 29.9146C37.8259 28.3677 36.6092 27.0417 36.6092 24.0615V14.126C36.6092 9.93229 36.9446 6.06771 33.854 3.2C31.3175 0.885417 27.3436 0 24.253 0H22.9269C17.304 0.326042 11.3478 2.75625 10.0186 9.71146C9.79775 10.5969 10.4623 10.926 10.904 11.0344L17.0832 11.8083C17.7446 11.6969 18.0769 11.1438 18.1853 10.5969C18.7353 8.16771 20.7228 6.95312 22.9269 6.72917H23.3717C24.6967 6.72917 26.1321 7.28229 26.9019 8.38854C27.7842 9.71146 27.6748 11.4792 27.6748 13.026V13.9083Z" fill="#343B45"/>
<path fill-rule="evenodd" clip-rule="evenodd" d="M49.9938 37.4438V37.4417C49.9709 36.9209 49.8615 36.524 49.6448 36.1938L49.6209 36.1625L49.5948 36.1292C49.374 35.8886 49.1625 35.7969 48.9334 35.6969C48.2479 35.4323 47.2511 35.2907 46.0521 35.2886C45.1907 35.2886 44.2407 35.3709 43.2854 35.5802L43.2823 35.5146L42.3209 35.8355L42.3032 35.8438L41.7594 36.0209V36.0438C41.1378 36.3017 40.5489 36.6325 40.0052 37.0292C39.6698 37.2792 39.3938 37.6125 39.3782 38.1209C39.3781 38.2698 39.4107 38.417 39.4737 38.552C39.5367 38.6869 39.6285 38.8065 39.7427 38.9021C39.8677 39.0017 40.0118 39.0746 40.1661 39.1161C40.3204 39.1577 40.4815 39.1671 40.6396 39.1438L40.6865 39.1417L40.7219 39.1354C41.1927 39.0354 41.8782 38.9677 42.6802 38.8563C43.3677 38.7792 44.0969 38.724 44.7292 38.724C45.1761 38.7209 45.5782 38.7532 45.8542 38.8115C45.973 38.8331 46.0881 38.8717 46.1959 38.9261C46.2175 39.0168 46.2263 39.11 46.2219 39.2032C46.2282 39.7323 46.0052 40.7146 45.6959 41.674C45.3959 42.6323 45.0313 43.5938 44.7907 44.2323C44.7275 44.3864 44.6946 44.5512 44.6938 44.7177C44.6875 44.974 44.7938 45.2855 45.0167 45.4917C45.2354 45.6969 45.5167 45.7792 45.7521 45.7792H45.7636C46.1167 45.7761 46.4167 45.6355 46.675 45.4323C49.1157 43.2386 49.9646 39.7323 50 37.7584L49.9938 37.4438ZM42.7594 40.4855C42.5021 40.4845 42.2479 40.5414 42.0157 40.6521C41.7479 40.7584 41.474 40.8823 41.2157 40.9917L40.8365 41.15L40.3427 41.348V41.3532C34.9782 43.5302 29.3427 44.8063 24.1271 44.9177C23.9354 44.924 23.7417 44.924 23.5563 44.924C15.3542 44.9292 8.66357 41.124 1.91357 37.374C1.69447 37.2544 1.44963 37.1897 1.20003 37.1855C0.896908 37.1855 0.585449 37.3 0.358366 37.5115C0.244816 37.6196 0.154481 37.7497 0.0928731 37.8939C0.0312652 38.038 -0.000323984 38.1933 3.275e-05 38.35C-0.00309225 38.7584 0.217741 39.1355 0.526074 39.3792C6.86149 44.8823 13.8052 49.9938 23.1459 50C23.3282 50 23.5136 49.9938 23.6979 49.9917C29.6396 49.8584 36.3573 47.85 41.5729 44.574L41.6042 44.5532C42.3039 44.1356 42.9748 43.6717 43.6125 43.1646C44.0125 42.8677 44.2896 42.4032 44.2896 41.9209C44.2719 41.0646 43.5438 40.4855 42.7594 40.4855Z" fill="#FF9A00"/>
</g>
<defs>
<clipPath id="clip0_507_550">
<rect width="50" height="50" fill="white"/>
</clipPath>
</defs>
</svg>
