<svg width="40" height="48" viewBox="0 0 40 48" fill="none" xmlns="http://www.w3.org/2000/svg">
<path fill-rule="evenodd" clip-rule="evenodd" d="M3.7511 15.3938C1.431 15.3938 -0.337725 17.9871 0.0547177 20.7022L3.30229 43.1683C3.6998 45.9182 5.73073 47.892 8.03288 47.892H31.9646C34.2691 47.892 36.2649 45.9061 36.6896 43.1917C36.6906 43.1839 36.6915 43.176 36.6924 43.1682L39.9372 20.7255V20.7221C40.3631 17.9878 38.5678 15.3937 36.2463 15.3937L3.7511 15.3938ZM3.7511 18.8147H36.2464C36.8398 18.8147 37.2422 19.3951 37.1328 20.0942C37.1318 20.102 37.1309 20.1098 37.13 20.1176L33.8825 42.5703C33.7051 43.6841 32.9114 44.4712 31.9646 44.4712H8.03288C7.08145 44.4712 6.27284 43.679 6.115 42.587L2.86743 20.1176C2.76218 19.3895 3.15531 18.8147 3.7511 18.8147Z" fill="white"/>
<path fill-rule="evenodd" clip-rule="evenodd" d="M13.2793 0.113503C13.1038 0.193818 12.9434 0.314846 12.807 0.469626C12.6707 0.624405 12.5612 0.809899 12.4848 1.01549L6.77576 16.4094C6.69956 16.6147 6.65787 16.8359 6.65306 17.0606C6.64825 17.2852 6.68042 17.5088 6.74772 17.7185C6.81503 17.9282 6.91616 18.1199 7.04533 18.2828C7.1745 18.4457 7.32918 18.5765 7.50054 18.6677C7.67186 18.759 7.85651 18.8089 8.04394 18.8147C8.23137 18.8205 8.41792 18.7819 8.59292 18.7013C8.76792 18.6206 8.92794 18.4994 9.06384 18.3446C9.19975 18.1898 9.30887 18.0044 9.38497 17.7991L15.094 2.40521C15.1702 2.19991 15.2119 1.97864 15.2167 1.75401C15.2215 1.52939 15.1894 1.30583 15.122 1.09611C15.0547 0.88639 14.9536 0.694607 14.8244 0.531741C14.6953 0.368876 14.5406 0.238111 14.3692 0.14691C14.0239 -0.0366291 13.632 -0.0486766 13.2793 0.113503Z" fill="white"/>
<path fill-rule="evenodd" clip-rule="evenodd" d="M26.7182 0.113525C26.3655 -0.048655 25.9735 -0.0366597 25.6282 0.14688C25.4569 0.238081 25.3022 0.368845 25.173 0.531711C25.0438 0.694577 24.9427 0.88636 24.8754 1.09608C24.8081 1.3058 24.7759 1.52936 24.7807 1.75398C24.7856 1.97861 24.8272 2.19988 24.9034 2.40518L30.6125 17.7991C30.7662 18.213 31.0506 18.5369 31.4034 18.6997C31.7562 18.8625 32.1484 18.851 32.4941 18.6676C32.6655 18.5764 32.8202 18.4457 32.9493 18.2828C33.0785 18.1199 33.1796 17.9282 33.2469 17.7185C33.3143 17.5088 33.3464 17.2852 33.3416 17.0606C33.3368 16.8359 33.2951 16.6146 33.2189 16.4093L27.5099 1.01546C27.3562 0.600884 27.0714 0.276479 26.7182 0.113525Z" fill="white"/>
<path fill-rule="evenodd" clip-rule="evenodd" d="M19.9805 22.2355C19.6019 22.2355 19.2389 22.4158 18.9713 22.7365C18.7036 23.0573 18.5532 23.4923 18.5532 23.946V37.6294C18.5532 38.0831 18.7036 38.5181 18.9713 38.8389C19.2389 39.1596 19.6019 39.3399 19.9805 39.3399C20.359 39.3399 20.722 39.1596 20.9897 38.8389C21.2574 38.5181 21.4077 38.0831 21.4077 37.6294V23.946C21.4077 23.4923 21.2574 23.0573 20.9897 22.7365C20.722 22.4158 20.359 22.2355 19.9805 22.2355Z" fill="white"/>
<path fill-rule="evenodd" clip-rule="evenodd" d="M14.2715 22.2355C13.893 22.2355 13.5299 22.4158 13.2623 22.7365C12.9946 23.0573 12.8442 23.4923 12.8442 23.946V37.6294C12.8442 38.0831 12.9946 38.5181 13.2623 38.8389C13.5299 39.1596 13.893 39.3399 14.2715 39.3399C14.65 39.3399 15.0131 39.1596 15.2807 38.8389C15.5484 38.5181 15.6988 38.0831 15.6988 37.6294V23.946C15.6988 23.4923 15.5484 23.0573 15.2807 22.7365C15.0131 22.4158 14.65 22.2355 14.2715 22.2355Z" fill="white"/>
<path fill-rule="evenodd" clip-rule="evenodd" d="M25.6895 22.2355C25.3109 22.2355 24.9479 22.4158 24.6802 22.7365C24.4126 23.0573 24.2622 23.4923 24.2622 23.946V37.6294C24.2622 38.0831 24.4126 38.5181 24.6802 38.8389C24.9479 39.1596 25.3109 39.3399 25.6895 39.3399C26.068 39.3399 26.431 39.1596 26.6987 38.8389C26.9664 38.5181 27.1167 38.0831 27.1167 37.6294V23.946C27.1167 23.4923 26.9664 23.0573 26.6987 22.7365C26.431 22.4158 26.068 22.2355 25.6895 22.2355Z" fill="white"/>
</svg>
