<svg width="110" height="110" viewBox="0 0 110 110" fill="none" xmlns="http://www.w3.org/2000/svg">
<path d="M107.559 48.0718L100.079 39.3839C98.6486 37.7343 97.4936 34.6551 97.4936 32.4556V23.108C97.4936 17.2794 92.7083 12.4956 86.8779 12.4956H77.5274C75.3822 12.4956 72.2471 11.3409 70.597 9.91127L61.9064 2.43314C58.1112 -0.811047 51.8958 -0.811047 48.0456 2.43314L39.4099 9.96625C37.7598 11.3409 34.6246 12.4956 32.4795 12.4956H22.9639C17.1335 12.4956 12.3482 17.2794 12.3482 23.108V32.5106C12.3482 34.6551 11.1932 37.7343 9.81809 39.3839L2.39264 48.1268C-0.797548 51.9208 -0.797548 58.0793 2.39264 61.8733L9.81809 70.6161C11.1932 72.2657 12.3482 75.3449 12.3482 77.4894V86.892C12.3482 92.7206 17.1335 97.5044 22.9639 97.5044H32.4795C34.6246 97.5044 37.7598 98.6591 39.4099 100.089L48.1006 107.567C51.8958 110.811 58.1112 110.811 61.9614 107.567L70.652 100.089C72.3021 98.6591 75.3823 97.5044 77.5824 97.5044H86.9329C92.7633 97.5044 97.5486 92.7206 97.5486 86.892V77.5444C97.5486 75.3999 98.7037 72.2657 100.134 70.6161L107.614 61.9283C110.804 58.1342 110.804 51.8658 107.559 48.0718ZM80.7176 55L74.2822 74.5751C73.4571 77.8193 69.9919 80.4586 66.4717 80.4586H56.2961C54.536 80.4586 52.0608 79.8538 50.9608 78.7541L42.8751 72.4307C42.7101 75.9498 41.115 77.4344 37.2097 77.4344H34.5696C30.4993 77.4344 28.8492 75.8398 28.8492 71.9908V45.7074C28.8492 41.8583 30.4993 40.2637 34.5696 40.2637H37.2647C41.335 40.2637 42.9851 41.8583 42.9851 45.7074V47.6869L53.6559 31.8508C54.756 30.1462 57.5612 28.9365 59.9263 29.8713C62.5115 30.751 64.1616 33.6103 63.6115 36.1397L62.2915 44.7176C62.1815 45.4874 62.3465 46.2022 62.8415 46.7521C63.2815 47.247 63.9416 47.5769 64.6566 47.5769H75.3822C77.4724 47.5769 79.2325 48.4017 80.2775 49.8863C81.2126 51.316 81.3776 53.1305 80.7176 55Z" fill="#0038FF"/>
</svg>
