<svg width="50" height="50" viewBox="0 0 50 50" fill="none" xmlns="http://www.w3.org/2000/svg">
<g clip-path="url(#clip0_507_546)">
<path d="M12.6789 49.823C10.745 49.8015 8.82918 49.4468 7.01569 48.7745C5.69139 48.285 4.49324 47.5057 3.50882 46.4936C2.494 45.5112 1.71357 44.3127 1.22549 42.9873C0.5538 41.1738 0.199599 39.2582 0.178431 37.3245C0.029902 34.1098 0 33.1456 0 25C0 16.8544 0.0328431 15.8936 0.176961 12.6765C0.200697 10.7435 0.555334 8.82891 1.22549 7.01569C1.71595 5.69118 2.49527 4.49254 3.50686 3.50686C4.49006 2.49296 5.68878 1.71325 7.01422 1.22549C8.82771 0.553243 10.7435 0.198543 12.6775 0.176961C15.8931 0.029902 16.8588 0 25 0C33.1412 0 34.1064 0.0328431 37.3235 0.176961C39.257 0.20053 41.1721 0.555169 42.9858 1.22549C44.3106 1.71389 45.509 2.49333 46.4926 3.50637C47.506 4.49031 48.2858 5.68902 48.7745 7.01422C49.4469 8.82768 49.8018 10.7435 49.8235 12.6775C49.9706 15.8946 50.0005 16.8578 50.0005 25.001C50.0005 33.1441 49.9706 34.1073 49.8235 37.3245C49.8002 39.2582 49.4454 41.1735 48.7745 42.9873C48.2671 44.3025 47.4898 45.497 46.4928 46.4937C45.4958 47.4905 44.3012 48.2674 42.9858 48.7745C41.1723 49.4469 39.2565 49.8018 37.3225 49.8235C34.1083 49.9706 33.1422 50.0005 24.999 50.0005C16.8559 50.0005 15.8926 49.9721 12.6784 49.8235" fill="url(#paint0_radial_507_546)"/>
<path d="M12.6789 49.823C10.745 49.8015 8.82918 49.4468 7.01569 48.7745C5.69139 48.285 4.49324 47.5057 3.50882 46.4936C2.494 45.5112 1.71357 44.3127 1.22549 42.9873C0.5538 41.1738 0.199599 39.2582 0.178431 37.3245C0.029902 34.1098 0 33.1456 0 25C0 16.8544 0.0328431 15.8936 0.176961 12.6765C0.200697 10.7435 0.555334 8.82891 1.22549 7.01569C1.71595 5.69118 2.49527 4.49254 3.50686 3.50686C4.49006 2.49296 5.68878 1.71325 7.01422 1.22549C8.82771 0.553243 10.7435 0.198543 12.6775 0.176961C15.8931 0.029902 16.8588 0 25 0C33.1412 0 34.1064 0.0328431 37.3235 0.176961C39.257 0.20053 41.1721 0.555169 42.9858 1.22549C44.3106 1.71389 45.509 2.49333 46.4926 3.50637C47.506 4.49031 48.2858 5.68902 48.7745 7.01422C49.4469 8.82768 49.8018 10.7435 49.8235 12.6775C49.9706 15.8946 50.0005 16.8578 50.0005 25.001C50.0005 33.1441 49.9706 34.1073 49.8235 37.3245C49.8002 39.2582 49.4454 41.1735 48.7745 42.9873C48.2671 44.3025 47.4898 45.497 46.4928 46.4937C45.4958 47.4905 44.3012 48.2674 42.9858 48.7745C41.1723 49.4469 39.2565 49.8018 37.3225 49.8235C34.1083 49.9706 33.1422 50.0005 24.999 50.0005C16.8559 50.0005 15.8926 49.9721 12.6784 49.8235" fill="url(#paint1_radial_507_546)"/>
<path d="M18.8614 25.1065C18.8615 23.8819 19.2247 22.6848 19.9052 21.6666C20.5856 20.6484 21.5527 19.8549 22.6841 19.3864C23.8156 18.9179 25.0606 18.7954 26.2616 19.0344C27.4627 19.2735 28.5659 19.8633 29.4317 20.7293C30.2975 21.5954 30.8871 22.6987 31.1259 23.8998C31.3646 25.1009 31.2418 26.3459 30.7731 27.4772C30.3043 28.6086 29.5105 29.5755 28.4922 30.2557C27.4738 30.9359 26.2767 31.2988 25.0521 31.2987C23.41 31.2984 21.8353 30.6459 20.6743 29.4846C19.5134 28.3234 18.8612 26.7485 18.8614 25.1065ZM15.5138 25.1065C15.5138 26.993 16.0732 28.8371 17.1213 30.4057C18.1694 31.9742 19.659 33.1967 21.4019 33.9187C23.1448 34.6406 25.0626 34.8295 26.9129 34.4615C28.7631 34.0934 30.4627 33.185 31.7966 31.851C33.1305 30.5171 34.039 28.8175 34.407 26.9673C34.775 25.1171 34.5862 23.1992 33.8642 21.4564C33.1423 19.7135 31.9198 18.2238 30.3512 17.1757C28.7826 16.1277 26.9385 15.5682 25.0521 15.5682C23.7995 15.5682 22.5591 15.8149 21.4019 16.2942C20.2446 16.7735 19.1931 17.4761 18.3074 18.3618C17.4216 19.2475 16.7191 20.299 16.2397 21.4563C15.7604 22.6135 15.5137 23.8539 15.5138 25.1065ZM32.7388 15.1903C32.7386 15.6311 32.8692 16.0621 33.1139 16.4288C33.3587 16.7954 33.7066 17.0813 34.1139 17.2502C34.5211 17.4191 34.9692 17.4634 35.4016 17.3776C35.834 17.2918 36.2313 17.0796 36.5431 16.7681C36.855 16.4565 37.0674 16.0594 37.1536 15.6271C37.2398 15.1948 37.1959 14.7466 37.0274 14.3392C36.8588 13.9319 36.5733 13.5836 36.2069 13.3386C35.8404 13.0935 35.4095 12.9626 34.9687 12.9624C34.3778 12.9626 33.8112 13.1974 33.3933 13.6152C32.9753 14.0329 32.7403 14.5994 32.7398 15.1903M17.5486 40.2266C16.3707 40.2136 15.2039 39.9981 14.0991 39.5893C13.2979 39.2805 12.5703 38.8074 11.963 38.2004C11.3557 37.5933 10.8823 36.8659 10.5731 36.0648C10.1642 34.9601 9.94862 33.7932 9.93587 32.6153C9.84568 30.6575 9.82803 30.0692 9.82803 25.1089C9.82803 20.1486 9.84764 19.5619 9.93587 17.6021C9.95016 16.4243 10.1657 15.2577 10.5731 14.1526C10.8819 13.3511 11.3552 12.6233 11.9625 12.016C12.5698 11.4087 13.2977 10.9354 14.0991 10.6266C15.2038 10.2177 16.3707 10.0021 17.5486 9.98933C19.5065 9.89914 20.0947 9.88149 25.053 9.88149C30.0114 9.88149 30.6001 9.90061 32.5599 9.98983C33.7376 10.0041 34.9043 10.2196 36.0094 10.6271C36.8108 10.9359 37.5386 11.4092 38.1459 12.0165C38.7533 12.6238 39.2266 13.3516 39.5354 14.1531C39.9443 15.2578 40.1599 16.4247 40.1726 17.6026C40.2628 19.5634 40.2805 20.1486 40.2805 25.1094C40.2805 30.0702 40.2623 30.6565 40.1726 32.6163C40.1589 33.7941 39.9434 34.9608 39.5354 36.0658C39.2262 36.8669 38.7528 37.5943 38.1455 38.2013C37.5382 38.8084 36.8106 39.2815 36.0094 39.5903C34.9047 39.9992 33.7378 40.2148 32.5599 40.2276C30.602 40.3178 30.0138 40.3354 25.053 40.3354C20.0922 40.3354 19.506 40.3173 17.5486 40.2276M17.3947 6.64473C15.8534 6.67503 14.3285 6.96675 12.8849 7.50746C11.6508 7.9846 10.5301 8.71436 9.59451 9.64993C8.65894 10.5855 7.92919 11.7062 7.45204 12.9403C6.9114 14.3839 6.61969 15.9089 6.58931 17.4501C6.49764 19.4305 6.47705 20.0638 6.47705 25.1084C6.47705 30.1531 6.49813 30.7859 6.58931 32.7668C6.61968 34.308 6.91139 35.8329 7.45204 37.2766C7.92921 38.5106 8.65897 39.6314 9.59454 40.5669C10.5301 41.5025 11.6508 42.2323 12.8849 42.7094C14.3286 43.2499 15.8535 43.5416 17.3947 43.5722C19.3761 43.6624 20.0084 43.6844 25.053 43.6844C30.0976 43.6844 30.7305 43.6634 32.7114 43.5722C34.2526 43.5417 35.7775 43.25 37.2212 42.7094C38.4552 42.2323 39.5759 41.5025 40.5115 40.5669C41.4471 39.6314 42.1768 38.5106 42.654 37.2766C43.1954 35.8331 43.4871 34.3081 43.5168 32.7668C43.607 30.7849 43.6275 30.1531 43.6275 25.1084C43.6275 20.0638 43.6065 19.431 43.5168 17.4501C43.4865 15.9089 43.1947 14.3839 42.654 12.9403C42.1769 11.7065 41.4473 10.5859 40.512 9.65036C39.5767 8.71482 38.4563 7.98494 37.2226 7.50746C35.7791 6.9664 34.2541 6.67467 32.7128 6.64473C30.7319 6.55404 30.0991 6.53247 25.0555 6.53247C20.0119 6.53247 19.3775 6.55355 17.3957 6.64473" fill="white"/>
</g>
<defs>
<radialGradient id="paint0_radial_507_546" cx="0" cy="0" r="1" gradientUnits="userSpaceOnUse" gradientTransform="translate(3.23578 48.9049) scale(63.4814)">
<stop offset="0.09" stop-color="#FA8F21"/>
<stop offset="0.78" stop-color="#D82D7E"/>
</radialGradient>
<radialGradient id="paint1_radial_507_546" cx="0" cy="0" r="1" gradientUnits="userSpaceOnUse" gradientTransform="translate(34.6333 47.299) scale(55.8642)">
<stop offset="0.64" stop-color="#8C3AAA" stop-opacity="0"/>
<stop offset="1" stop-color="#8C3AAA"/>
</radialGradient>
<clipPath id="clip0_507_546">
<rect width="50" height="50" fill="white"/>
</clipPath>
</defs>
</svg>
