<svg width="45" height="55" viewBox="0 0 45 55" fill="none" xmlns="http://www.w3.org/2000/svg">
<path d="M25.2773 53.7641C31.2891 46.8498 45 30.0915 45 20.6785C45 9.26225 34.9219 0 22.5 0C10.0781 0 0 9.26225 0 20.6785C0 30.0915 13.7109 46.8498 19.7227 53.7641C21.1641 55.412 23.8359 55.412 25.2773 53.7641ZM22.5 13.7857C24.4891 13.7857 26.3968 14.5119 27.8033 15.8045C29.2098 17.0972 30 18.8504 30 20.6785C30 22.5066 29.2098 24.2598 27.8033 25.5525C26.3968 26.8451 24.4891 27.5714 22.5 27.5714C20.5109 27.5714 18.6032 26.8451 17.1967 25.5525C15.7902 24.2598 15 22.5066 15 20.6785C15 18.8504 15.7902 17.0972 17.1967 15.8045C18.6032 14.5119 20.5109 13.7857 22.5 13.7857Z" fill="white"/>
</svg>
