<svg width="85" height="84" viewBox="0 0 85 84" fill="none" xmlns="http://www.w3.org/2000/svg">
<path d="M62.3855 77.6314L59.7908 80.2758C57.9253 82.1771 55.1705 81.9557 53.631 79.7809L20.0154 32.2912C18.476 30.1164 18.7397 26.8186 20.6052 24.9173L23.1999 22.2729L62.3855 77.6314ZM61.7273 46.7185C61.5848 46.2614 61.4662 45.7969 61.3526 45.3272C61.042 45.5111 60.7079 45.6371 60.3427 45.6078L55.0217 45.1803C54.4769 45.1365 54.0058 44.8339 53.6839 44.3792C53.3621 43.9244 53.1894 43.3176 53.2416 42.6655C53.3459 41.3611 54.3126 40.3759 55.4004 40.4652L60.7214 40.8927L60.729 40.8952C60.7089 40.5038 60.6857 40.1123 60.6844 39.7187L60.6807 36.6492C60.6134 36.6531 60.5517 36.6855 60.4836 36.68L52.493 36.0361C51.9482 35.9924 51.4771 35.6897 51.1552 35.235C50.8334 34.7803 50.6607 34.1734 50.7129 33.5213C50.8172 32.2169 51.7839 31.2318 52.8717 31.321L60.6752 31.948L60.6655 23.7726C60.6688 22.9524 60.4296 22.2432 60.0238 21.6699C59.52 20.9581 58.7308 20.5031 57.8722 20.5274C53.0329 20.6607 48.432 18.2026 45.3531 13.853L41.6165 8.57421C40.4689 6.95299 38.395 6.78637 36.9874 8.22095L34.0875 11.1765L39.9233 19.421C43.8335 24.945 43.7375 33 40.036 38.6341L54.3122 58.8024L62.8035 50.1483L61.7273 46.7185ZM65.1904 74.1703C67.239 70.6802 67.8245 66.2036 66.5659 62.1736L64.2592 54.7908L56.8313 62.3612L65.1904 74.1703Z" fill="white"/>
<path d="M37.2947 34.7172C39.3559 30.8902 39.2748 25.8495 36.7531 22.2884L30.8982 14.0201L26.1002 18.9083L37.2947 34.7172Z" fill="white"/>
<path d="M32.6016 65.6834L27.0078 65.2344C26.6016 65.2064 26.2031 65.3373 25.875 65.6273C25.5469 65.9173 25.3125 66.3195 25.2187 66.7965L23.8438 73.3069C22.6172 73.6997 21.3281 73.9055 20 73.9055C18.6719 73.9055 17.3828 73.6997 16.1562 73.3069L14.7812 66.7965C14.6797 66.3288 14.4453 65.9173 14.125 65.6273C13.8047 65.3373 13.3984 65.2064 12.9922 65.2344L7.39844 65.6834C6.02344 63.1392 5.17188 60.1459 5.02344 56.9282L9.76562 53.355C10.1094 53.0931 10.3594 52.7002 10.4844 52.2419C10.6094 51.7835 10.5938 51.2878 10.4453 50.8388L8.35938 44.6091C10 42.2145 12.1328 40.325 14.5859 39.1932L18.8984 43.496C19.2109 43.8046 19.6016 43.973 20 43.973C20.3984 43.973 20.7969 43.8046 21.1016 43.496L25.4141 39.1932C27.8594 40.325 30 42.2145 31.6328 44.6091L29.5469 50.8388C29.3984 51.2878 29.3828 51.7835 29.5078 52.2419C29.6328 52.7002 29.8906 53.0931 30.2266 53.355L34.9688 56.9282C34.8203 60.1459 33.9688 63.1392 32.5938 65.6834H32.6016ZM20 79.892C25.3043 79.892 30.3914 77.3691 34.1421 72.8784C37.8929 68.3876 40 62.2969 40 55.946C40 49.5951 37.8929 43.5044 34.1421 39.0136C30.3914 34.5229 25.3043 32 20 32C14.6957 32 9.60859 34.5229 5.85786 39.0136C2.10714 43.5044 0 49.5951 0 55.946C0 62.2969 2.10714 68.3876 5.85786 72.8784C9.60859 77.3691 14.6957 79.892 20 79.892ZM21.1016 49.4263C20.4453 48.8557 19.5547 48.8557 18.8984 49.4263L15.1562 52.6721C14.5 53.2427 14.2266 54.2529 14.4766 55.179L15.9062 60.4452C16.1562 61.3713 16.875 61.998 17.6875 61.998H22.3125C23.125 61.998 23.8438 61.3713 24.0938 60.4452L25.5234 55.179C25.7734 54.2529 25.5 53.2427 24.8438 52.6721L21.1016 49.417V49.4263Z" fill="white"/>
</svg>
