<svg width="50" height="50" viewBox="0 0 50 50" fill="none" xmlns="http://www.w3.org/2000/svg">
<path d="M50 2.04778C50 0.938566 49.1935 0 48.2405 0H1.75953C0.806451 0 0 0.938566 0 2.04778V48.4642C0 48.5495 2.78577e-07 48.6348 0.0733141 48.6348C0.0733141 48.7201 0.146628 48.7201 0.146628 48.8055C0.146628 48.8908 0.219942 48.8908 0.219942 48.9761C0.219942 49.0614 0.293255 49.0614 0.293255 49.1468C0.293255 49.2321 0.366569 49.2321 0.366569 49.3174L0.513197 49.488C0.513197 49.488 0.513197 49.5734 0.586511 49.5734H0.659824C0.806451 49.744 0.953079 49.8293 1.09971 49.9147H1.17302C1.31965 50 1.53959 50 1.68622 50H48.1672C48.3871 50 48.5337 49.9147 48.6804 49.9147H48.7537C48.9003 49.8293 49.0469 49.744 49.1936 49.5734H49.2669C49.2669 49.5734 49.2669 49.488 49.3402 49.488L49.4868 49.3174C49.5601 49.2321 49.5601 49.2321 49.5601 49.1468C49.5601 49.0614 49.6334 49.0614 49.6334 48.9761C49.6334 48.8908 49.7067 48.8908 49.7067 48.8055C49.7067 48.7201 49.7801 48.7201 49.7801 48.6348C49.7801 48.5495 49.8534 48.4642 49.8534 48.4642V2.04778H50ZM3.51906 15.529L15.6891 25.4266L3.51906 42.3208V15.529ZM18.5484 27.7304L23.9736 32.0819C24.2669 32.3379 24.6334 32.4232 25 32.4232C25.3666 32.4232 25.7331 32.3379 26.0264 32.0819L31.4516 27.7304L44.4282 45.9044H5.57185L18.5484 27.7304ZM34.3109 25.4266L46.4809 15.529V42.3208L34.3109 25.4266ZM46.4809 4.09556V10.4949L25 27.9863L3.51906 10.5802V4.09556H46.4809Z" fill="white"/>
</svg>
