<svg width="132" height="85" viewBox="0 0 132 85" fill="none" xmlns="http://www.w3.org/2000/svg">
<path d="M56.25 14.0625C48.2812 14.0625 42.1875 22.5 42.1875 32.8125C42.1875 43.125 48.2812 51.5625 56.25 51.5625C64.2188 51.5625 70.3125 43.125 70.3125 32.8125C70.3125 22.5 64.2188 14.0625 56.25 14.0625Z" fill="#0038FF"/>
<path d="M126.562 18.75H112.5V4.6875C112.5 1.875 110.625 0 107.812 0H4.6875C1.875 0 0 1.875 0 4.6875V60.9375C0 63.75 1.875 65.625 4.6875 65.625H18.75H107.812C110.625 65.625 112.5 67.5 112.5 70.3125C112.5 73.125 110.625 75 107.812 75H18.75V79.6875C18.75 82.5 20.625 84.375 23.4375 84.375H126.562C129.375 84.375 131.25 82.5 131.25 79.6875V23.4375C131.25 20.625 129.375 18.75 126.562 18.75ZM103.125 37.9688C93.75 39.8438 86.7188 46.875 84.8438 56.25H27.6562C25.7812 46.875 18.75 39.8438 9.375 37.9688V27.6562C18.75 25.7812 25.7812 18.75 27.6562 9.375H84.8438C86.7188 18.75 93.75 25.7812 103.125 27.6562V37.9688Z" fill="#0038FF"/>
</svg>
