<svg width="50" height="50" viewBox="0 0 50 50" fill="none" xmlns="http://www.w3.org/2000/svg">
<path d="M36.6406 32.7032C36.2051 32.2662 35.6876 31.9194 35.1178 31.6828C34.5481 31.4463 33.9372 31.3245 33.3203 31.3245C32.7033 31.3245 32.0924 31.4463 31.5227 31.6828C30.9529 31.9194 30.4354 32.2662 29.9999 32.7032L27.7343 34.9688C25.1834 33.3498 22.82 31.4528 20.6874 29.3125C18.5472 27.18 16.6502 24.8166 15.0312 22.2657L17.2968 20C17.7338 19.5646 18.0806 19.0471 18.3171 18.4773C18.5537 17.9075 18.6755 17.2967 18.6755 16.6797C18.6755 16.0628 18.5537 15.4519 18.3171 14.8821C18.0806 14.3124 17.7338 13.7949 17.2968 13.3594L12.8749 8.95317C12.4456 8.51472 11.9325 8.16706 11.3662 7.93086C10.7998 7.69465 10.1917 7.57471 9.57807 7.57817C8.96008 7.57666 8.34788 7.69736 7.77671 7.93334C7.20554 8.16932 6.68667 8.51591 6.24995 8.95317L4.12495 11.0625C3.11209 12.1516 2.35615 13.4537 1.91271 14.8733C1.46926 16.2929 1.34957 17.7938 1.56245 19.2657C2.06245 25.125 5.9062 32.1719 11.8281 38.1094C17.7499 44.0469 24.8749 47.875 30.7343 48.4375C31.1715 48.4609 31.6096 48.4609 32.0468 48.4375C33.3081 48.4905 34.5673 48.2911 35.7505 47.8511C36.9338 47.4111 38.0172 46.7393 38.9374 45.875L41.0468 43.75C41.4841 43.3133 41.8307 42.7945 42.0667 42.2233C42.3026 41.6521 42.4233 41.0399 42.4218 40.4219C42.4253 39.8083 42.3053 39.2002 42.0691 38.6338C41.8329 38.0675 41.4853 37.5544 41.0468 37.125L36.6406 32.7032ZM41.5625 8.42192C39.391 6.24219 36.8095 4.51386 33.9669 3.33658C31.1243 2.15931 28.0767 1.55637 24.9999 1.56255C24.5855 1.56255 24.1881 1.72717 23.8951 2.02019C23.6021 2.31322 23.4374 2.71065 23.4374 3.12505C23.4374 3.53945 23.6021 3.93688 23.8951 4.2299C24.1881 4.52293 24.5855 4.68755 24.9999 4.68755C27.6819 4.68745 30.3374 5.21849 32.8131 6.25002C35.2888 7.28155 37.5357 8.79315 39.4242 10.6976C41.3126 12.602 42.8052 14.8616 43.8159 17.3459C44.8265 19.8302 45.3351 22.49 45.3124 25.1719C45.3124 25.5863 45.4771 25.9838 45.7701 26.2768C46.0631 26.5698 46.4605 26.7344 46.8749 26.7344C47.2893 26.7344 47.6868 26.5698 47.9798 26.2768C48.2728 25.9838 48.4374 25.5863 48.4374 25.1719C48.4674 22.0624 47.8745 18.9784 46.6937 16.1017C45.513 13.225 43.7683 10.6137 41.5625 8.42192Z" fill="white"/>
<path d="M32.6719 17.3594C33.5586 18.2408 34.2601 19.2906 34.7351 20.4471C35.21 21.6037 35.4489 22.8435 35.4375 24.0938C35.4375 24.5082 35.6021 24.9056 35.8951 25.1986C36.1882 25.4916 36.5856 25.6563 37 25.6563C37.4144 25.6563 37.8118 25.4916 38.1049 25.1986C38.3979 24.9056 38.5625 24.5082 38.5625 24.0938C38.5832 22.4391 38.2751 20.7969 37.6562 19.2622C37.0373 17.7276 36.1198 16.3311 34.957 15.1537C33.7942 13.9764 32.4093 13.0417 30.8824 12.4037C29.3556 11.7658 27.7173 11.4374 26.0625 11.4375C25.6481 11.4375 25.2507 11.6021 24.9576 11.8951C24.6646 12.1882 24.5 12.5856 24.5 13C24.5 13.4144 24.6646 13.8118 24.9576 14.1049C25.2507 14.3979 25.6481 14.5625 26.0625 14.5625C27.2939 14.5718 28.5114 14.8236 29.6454 15.3034C30.7795 15.7833 31.8079 16.482 32.6719 17.3594Z" fill="white"/>
</svg>
