<svg width="142" height="142" viewBox="0 0 142 142" fill="none" xmlns="http://www.w3.org/2000/svg">
<path d="M140.375 35.375C139.938 34.7929 139.372 34.3203 138.721 33.9949C138.07 33.6695 137.353 33.5 136.625 33.5H27.6406L19.4375 4.1094C19.154 3.09549 18.5373 2.20655 17.687 1.58579C16.8367 0.965043 15.8021 0.648629 14.75 0.687529H5.375C4.1318 0.687529 2.93951 1.18139 2.06044 2.06047C1.18136 2.93954 0.6875 4.13183 0.6875 5.37503C0.6875 6.61823 1.18136 7.81051 2.06044 8.68959C2.93951 9.56867 4.1318 10.0625 5.375 10.0625H11.2344L19.4375 39.4532L38.1875 105.078C38.471 106.092 39.0877 106.981 39.938 107.602C40.7883 108.223 41.8229 108.539 42.875 108.5H117.875C118.927 108.539 119.962 108.223 120.812 107.602C121.662 106.981 122.279 106.092 122.562 105.078L141.312 39.4532C141.483 38.7472 141.487 38.0114 141.324 37.3037C141.161 36.596 140.836 35.9357 140.375 35.375ZM114.359 99.125H46.3906L30.3594 42.875H130.391L114.359 99.125ZM108.5 113.188C105.719 113.188 103 114.012 100.687 115.557C98.3747 117.103 96.5723 119.299 95.5079 121.869C94.4436 124.438 94.1651 127.266 94.7077 129.993C95.2503 132.721 96.5896 135.227 98.5563 137.194C100.523 139.16 103.029 140.5 105.757 141.042C108.484 141.585 111.312 141.306 113.881 140.242C116.451 139.178 118.647 137.375 120.193 135.063C121.738 132.75 122.562 130.031 122.562 127.25C122.562 123.52 121.081 119.944 118.444 117.306C115.806 114.669 112.23 113.188 108.5 113.188ZM108.5 131.938C107.573 131.938 106.667 131.663 105.896 131.148C105.125 130.632 104.524 129.9 104.169 129.044C103.815 128.187 103.722 127.245 103.903 126.336C104.083 125.426 104.53 124.591 105.185 123.935C105.841 123.28 106.676 122.833 107.586 122.653C108.495 122.472 109.437 122.565 110.294 122.919C111.15 123.274 111.882 123.875 112.398 124.646C112.913 125.417 113.188 126.323 113.188 127.25C113.188 128.493 112.694 129.686 111.815 130.565C110.935 131.444 109.743 131.938 108.5 131.938ZM52.25 113.188C49.4687 113.188 46.7499 114.012 44.4373 115.557C42.1247 117.103 40.3223 119.299 39.2579 121.869C38.1936 124.438 37.9151 127.266 38.4577 129.993C39.0003 132.721 40.3396 135.227 42.3063 137.194C44.273 139.16 46.7787 140.5 49.5065 141.042C52.2344 141.585 55.0619 141.306 57.6315 140.242C60.2011 139.178 62.3973 137.375 63.9425 135.063C65.4877 132.75 66.3125 130.031 66.3125 127.25C66.3125 123.52 64.8309 119.944 62.1937 117.306C59.5565 114.669 55.9796 113.188 52.25 113.188ZM52.25 131.938C51.3229 131.938 50.4166 131.663 49.6458 131.148C48.8749 130.632 48.2741 129.9 47.9193 129.044C47.5645 128.187 47.4717 127.245 47.6526 126.336C47.8334 125.426 48.2799 124.591 48.9354 123.935C49.591 123.28 50.4262 122.833 51.3355 122.653C52.2448 122.472 53.1873 122.565 54.0438 122.919C54.9004 123.274 55.6324 123.875 56.1475 124.646C56.6626 125.417 56.9375 126.323 56.9375 127.25C56.9375 128.493 56.4436 129.686 55.5646 130.565C54.6855 131.444 53.4932 131.938 52.25 131.938ZM67.6719 79.0156C66.7892 78.133 66.2933 76.9358 66.2933 75.6875C66.2933 74.4392 66.7892 73.2421 67.6719 72.3594C68.5546 71.4767 69.7517 70.9809 71 70.9809C72.2483 70.9809 73.4454 71.4767 74.3281 72.3594L75.6875 73.7657V56.9375C75.6875 55.6943 76.1814 54.502 77.0604 53.623C77.9395 52.7439 79.1318 52.25 80.375 52.25C81.6182 52.25 82.8105 52.7439 83.6896 53.623C84.5686 54.502 85.0625 55.6943 85.0625 56.9375V73.7657L86.4219 72.3594C87.3046 71.4767 88.5017 70.9809 89.75 70.9809C90.9983 70.9809 92.1954 71.4767 93.0781 72.3594C93.9608 73.2421 94.4567 74.4392 94.4567 75.6875C94.4567 76.9358 93.9608 78.133 93.0781 79.0156L83.7031 88.3906C83.3023 88.7832 82.8231 89.0867 82.2969 89.2813C81.6969 89.5725 81.0417 89.7323 80.375 89.75C79.7676 89.736 79.1663 89.6252 78.5938 89.4219C78.0241 89.1671 77.5012 88.8185 77.0469 88.3906L67.6719 79.0156Z" fill="#0038FF"/>
</svg>
