<svg width="40" height="48" viewBox="0 0 40 48" fill="none" xmlns="http://www.w3.org/2000/svg">
<path d="M40 23.946C40 27.2027 39.4667 30.2997 38.4 33.2371C37.3333 36.1744 35.92 38.7287 34.16 40.8998C32.4 43.0709 30.2667 44.779 27.76 46.0242C25.2533 47.2694 22.6667 47.892 20 47.892C17.3333 47.892 14.7467 47.2694 12.24 46.0242C9.73333 44.779 7.6 43.0709 5.84 40.8998C4.08 38.7287 2.66667 36.1744 1.6 33.2371C0.533336 30.2997 0 27.2027 0 23.946C0 20.6893 0.533336 17.5923 1.6 14.655C2.66667 11.7176 4.08 9.16334 5.84 6.99223C7.6 4.82113 9.72 3.12894 12.2 1.91568C14.68 0.702416 17.28 0.063856 20 0C22.72 0 25.3067 0.63856 27.76 1.91568C30.2133 3.1928 32.3467 4.88498 34.16 6.99223C35.9733 9.09948 37.3867 11.6537 38.4 14.655C39.4133 17.6562 39.9467 20.7532 40 23.946ZM35 23.946C35 20.6893 34.3333 17.6881 33 14.9423C31.6667 12.1965 29.84 10.0254 27.52 8.42899C25.2 6.83259 22.6933 6.01843 20 5.9865C17.3067 5.95457 14.8 6.76874 12.48 8.42899C10.16 10.0892 8.33333 12.2604 7 14.9423C5.66667 17.6243 5 20.6255 5 23.946C5 27.2665 5.66667 30.2837 7 32.9976C8.33333 35.7115 10.16 37.8826 12.48 39.5109C14.8 41.1392 17.3067 41.9374 20 41.9055C22.6933 41.8736 25.2 41.0754 27.52 39.5109C29.84 37.9464 31.6667 35.7753 33 32.9976C34.3333 30.2199 35 27.2027 35 23.946ZM27.48 34.4344C27.48 35.0091 27.3867 35.5838 27.2 36.1585C25.04 38.0103 22.64 38.9362 20 38.9362C17.36 38.9362 14.96 38.0103 12.8 36.1585C12.5867 35.5838 12.48 35.0091 12.48 34.4344C12.6933 33.0934 13.1467 31.8641 13.84 30.7467C14.5333 29.6292 15.3867 28.7352 16.4 28.0647C15.4667 26.9153 15 25.5424 15 23.946V20.9767C15 19.3164 15.4933 17.8956 16.48 16.7143C17.4667 15.533 18.64 14.9583 20 14.9902C21.36 15.0221 22.5333 15.5968 23.52 16.7143C24.5067 17.8318 25 19.2526 25 20.9767V23.946C25 25.5424 24.5333 26.9153 23.6 28.0647C24.6133 28.7352 25.4667 29.6292 26.16 30.7467C26.8533 31.8641 27.2933 33.0934 27.48 34.4344Z" fill="white"/>
</svg>
